OpenSim_Sub05_CSBaseline_LCS.mot
version=1
nRows=44
nColumns=11
inDegrees=no
endheader
time	Bot_Shank	2nd_Bot_Shank	2nd_Top_Shank	Top_Shank	Bot_Thigh	Med_Thigh	Top_Thigh	BNOx	BNOy	BNOZ
52.78000000	11234.14606006	11425.84457838	11815.44907773	11313.09264350	12610.48149518	12064.03231157	11941.78613005	205.10292890	-75.20952738	-107.69698669
52.79000000	11235.23544744	11423.82267808	11779.64617846	11294.55224961	12663.28043578	12064.62841602	11884.27452497	203.45714440	-73.81572230	-106.06756091
52.80000000	11236.49825901	11422.06561968	11744.61320299	11277.19044977	12719.00489814	12065.04382039	11823.53752045	201.73012219	-72.31933102	-104.10914792
52.81000000	11237.92788224	11420.49373602	11712.26190738	11262.19736476	12774.13802449	12065.27075888	11763.66708640	199.95895462	-70.75568807	-102.09137641
52.82000000	11239.51770457	11419.02735996	11684.50404769	11250.76311536	12825.16295708	12065.30146571	11708.75519270	198.18073404	-69.16012798	-100.28387505
52.83000000	11241.26111343	11417.58682435	11663.25137997	11244.07782235	12868.56283814	12065.12817508	11662.89380925	196.43255280	-67.56798528	-98.95627252
52.84000000	11243.14823687	11416.09704111	11650.29890574	11243.25131259	12901.01061550	12064.74607941	11629.94202415	194.75073883	-66.01394823	-98.35920503
52.85000000	11245.12043237	11414.55143821	11645.69463244	11248.19197748	12922.01929080	12064.19463485	11610.27432364	193.16018231	-64.52303506	-98.45912533
52.86000000	11247.08151374	11412.99618748	11648.14172798	11257.88334110	12933.28814477	12063.54737180	11601.58274061	191.67696855	-63.11282001	-99.00372121
52.87000000	11248.93432907	11411.47881749	11656.30876638	11271.28513673	12936.57269680	12062.87869719	11601.49030589	190.31695640	-61.80068583	-99.73505303
52.88000000	11250.58172641	11410.04685682	11668.86432162	11287.35709763	12933.62846632	12062.26301795	11607.62005035	189.09600468	-60.60401525	-100.39518117
52.89000000	11251.92655385	11408.74783403	11684.47696770	11305.05895706	12926.21097271	12061.77474101	11617.59500484	188.02997224	-59.54019103	-100.72616601
52.90000000	11252.87165944	11407.62927769	11701.81527861	11323.35044831	12916.07573540	12061.48827328	11629.03820020	187.13471790	-58.62659591	-100.47006792
52.91000000	11253.31989127	11406.73871639	11719.54782835	11341.19130463	12904.97827378	12061.47802171	11639.57266730	186.42610051	-57.88061263	-99.36894727
52.92000000	11253.17409739	11406.12367869	11736.34319092	11357.54125930	12894.67410726	12061.81839321	11646.82143698	185.91997891	-57.31962394	-97.16486445
52.93000000	11252.35018640	11405.81963219	11750.93918574	11371.42213694	12886.76523769	12062.56545033	11648.64279386	185.63091707	-56.96053420	-93.64994353
52.94000000	11250.89889862	11405.73753167	11762.78849559	11382.49676939	12881.26881075	12063.58587518	11645.32369195	185.56011143	-56.81530908	-89.13314708
52.95000000	11248.95051789	11405.71487604	11771.76553421	11390.80614839	12877.26699198	12064.63462559	11638.58386986	185.70087227	-56.89300070	-84.22834462
52.96000000	11246.63635611	11405.58821478	11777.75016617	11396.39615329	12873.82986248	12065.46521539	11630.16158471	186.04640797	-57.20262350	-79.55334657
52.97000000	11244.08772520	11405.19409740	11780.62225603	11399.31266349	12870.02750333	12065.83115839	11621.79509364	186.58992688	-57.75319195	-75.72596332
52.98000000	11241.43593707	11404.36907337	11780.26166836	11399.60155835	12864.92999562	12065.48596841	11615.22265378	187.32463736	-58.55372049	-73.36400527
52.99000000	11238.81230363	11402.94969220	11776.54826772	11397.30871724	12857.60742044	12064.18315926	11612.18252227	188.24374779	-59.61322360	-73.08528284
53.00000000	11236.34813680	11400.77250337	11769.36191868	11392.48001956	12847.12985887	12061.67624475	11614.41295623	189.34046652	-60.94071571	-75.50760643
53.01000000	11234.17474848	11397.67405639	11758.58248580	11385.16134466	12832.56739200	12057.71873872	11623.65221280	190.60800192	-62.54521129	-81.24878644
53.02000000	11232.42345060	11393.49090074	11744.08983365	11375.39857193	12812.99010092	12052.06415497	11641.63854912	192.03956234	-64.43572479	-90.92663327
53.03000000	11231.21280608	11388.10521949	11725.88529285	11363.29725564	12787.63232224	12044.55340878	11669.87363702	193.62881353	-66.61474084	-105.01637026
53.04000000	11230.52976233	11381.87029932	11705.22416281	11349.57901072	12757.42410341	12035.92971463	11707.41673301	195.37414297	-69.01733262	-122.52120677
53.05000000	11230.28362065	11375.41735269	11684.10151728	11335.32889486	12724.29587024	12027.46859507	11751.88619958	197.27672372	-71.53880416	-141.57594288
53.06000000	11230.38267878	11369.38118425	11664.52199146	11321.63666316	12690.19097834	12020.45245265	11800.88177586	199.33776484	-74.07394550	-160.30415462
53.07000000	11230.73523444	11364.39659863	11648.49022056	11309.59207074	12657.05278326	12016.16368993	11852.00320101	201.55847538	-76.51754667	-176.82941802
53.08000000	11231.24958537	11361.09840047	11638.01083978	11300.28487272	12626.82464058	12015.88470947	11902.85021419	203.94006442	-78.76439769	-189.27530912
53.09000000	11231.83402932	11360.12139439	11635.08848432	11294.80482421	12601.44990588	12020.89791382	11951.02255454	206.48374101	-80.70928861	-195.76540395
53.10000000	11232.39686401	11362.10038504	11641.72778939	11294.24168033	12582.87193474	12032.48570553	11994.11996122	209.19071422	-82.24700945	-194.42327853
53.11000000	11232.84638719	11367.67017704	11659.93339020	11299.68519619	12573.03408272	12051.93048716	12029.74217338	212.06219310	-83.27235024	-183.37250889
53.12000000	11233.09404394	11377.42751818	11691.57893196	11312.16162414	12573.75984287	12080.41514012	12055.57881288	215.09745020	-83.68495339	-160.84682402
53.13000000	11233.12366857	11391.09384856	11735.52529050	11331.23665279	12584.11586985	12116.83355912	12071.38680381	218.25121804	-83.49606615	-127.61347081
53.14000000	11232.99148460	11407.51530059	11787.62057219	11355.01540704	12600.41197999	12157.79065223	12078.99037255	221.43368913	-82.82854057	-86.97321404
53.15000000	11232.75686291	11425.49994986	11843.58189345	11381.53950901	12618.83812706	12199.79180635	12080.30362815	224.55311945	-81.81008108	-42.33697146
53.16000000	11232.47917439	11443.85587193	11899.12637069	11408.85058081	12635.58426483	12239.34240839	12077.24067968	227.51776501	-80.56839212	2.88433920
53.17000000	11232.21778989	11461.39114236	11949.97112032	11434.99024456	12646.84034708	12272.94784526	12071.71563620	230.23588177	-79.23117814	45.27980019
53.18000000	11232.03208032	11476.91383673	11991.83325875	11458.00012240	12648.79632760	12297.11350385	12065.64260678	232.61572574	-77.92614357	81.43849377
53.19000000	11231.97639805	11489.33064576	12020.79872799	11476.07817384	12638.01520543	12308.68008902	12060.81123200	234.57331749	-76.77309551	108.22755255
53.20000000	11232.05328662	11498.56632521	12036.76108350	11489.03632573	12614.91115569	12307.94999922	12057.72618775	236.10483644	-75.81031198	125.38459397
53.21000000	11232.23472507	11505.14623455	12041.86016840	11497.63865901	12582.17034068	12297.26784636	12056.13408970	237.25375136	-75.02797319	134.34066747
